<?xml version="1.0" standalone="no"?>
<!DOCTYPE svg PUBLIC "-//W3C//DTD SVG 20010904//EN"
 "http://www.w3.org/TR/2001/REC-SVG-20010904/DTD/svg10.dtd">
<svg version="1.0" xmlns="http://www.w3.org/2000/svg"
 width="517.000000pt" height="209.000000pt" viewBox="0 0 517.000000 209.000000"
 preserveAspectRatio="xMidYMid meet">

<g transform="translate(0.000000,209.000000) scale(0.100000,-0.100000)"
fill="#000000" stroke="none">
<path d="M1578 2043 c-9 -10 -101 -218 -206 -462 -105 -244 -193 -445 -195
-448 -3 -2 -29 22 -58 53 -145 154 -402 243 -664 230 -263 -13 -424 -122 -428
-289 -3 -144 151 -300 375 -379 70 -25 79 -26 73 -11 -65 170 36 386 213 454
84 32 191 30 267 -5 110 -50 182 -132 206 -234 21 -87 23 -89 45 -56 30 43
474 1082 474 1108 0 48 -70 75 -102 39z"/>
<path d="M2867 1795 c-83 -31 -152 -99 -183 -181 -26 -67 -16 -197 19 -256 33
-56 86 -103 146 -131 67 -30 214 -29 291 2 90 37 90 37 90 173 l0 118 -60 0
-60 0 0 -84 c0 -106 -5 -111 -115 -111 -75 0 -85 2 -119 29 -54 40 -80 104
-73 174 11 109 80 167 198 167 55 0 72 -5 108 -28 l42 -28 27 20 c15 10 35 28
45 39 17 19 16 20 -19 47 -60 46 -124 65 -217 64 -45 0 -99 -7 -120 -14z"/>
<path d="M3514 1789 c-70 -27 -128 -79 -161 -147 -24 -49 -28 -68 -27 -137 1
-96 18 -138 80 -205 65 -69 127 -94 239 -94 71 0 100 5 137 22 67 30 132 93
158 155 31 71 32 182 2 249 -28 65 -100 132 -168 157 -73 28 -189 28 -260 0z
m203 -104 c21 -9 46 -23 57 -33 47 -42 70 -153 45 -219 -13 -35 -55 -80 -93
-100 -74 -39 -194 -6 -238 65 -45 72 -38 183 13 239 53 57 145 78 216 48z"/>
<path d="M4080 1505 l0 -295 215 0 215 0 0 55 0 55 -150 0 -150 0 0 240 0 240
-65 0 -65 0 0 -295z"/>
<path d="M4590 1505 l0 -295 65 0 64 0 3 108 3 107 138 3 137 3 0 56 0 56
-137 -4 -138 -4 0 80 0 80 155 5 155 5 3 48 3 47 -225 0 -226 0 0 -295z"/>
<path d="M730 1088 c-54 -18 -134 -104 -149 -161 -45 -158 69 -310 232 -310
135 1 241 108 239 243 -1 93 -39 160 -118 206 -52 30 -147 40 -204 22z"/>
<path d="M1710 881 c-83 -26 -150 -82 -191 -161 -20 -37 -24 -60 -24 -130 0
-100 21 -155 80 -215 112 -112 326 -125 436 -26 l40 36 -40 39 c-37 36 -42 38
-58 24 -37 -32 -83 -48 -139 -48 -111 0 -184 73 -184 183 0 93 30 143 105 178
68 32 157 19 210 -31 20 -18 21 -18 65 21 l45 39 -38 35 c-22 18 -60 41 -85
49 -48 17 -177 20 -222 7z"/>
<path d="M2294 869 c-70 -27 -128 -79 -161 -147 -24 -49 -28 -68 -27 -137 1
-96 18 -138 80 -205 65 -69 127 -94 239 -94 71 0 100 5 137 22 67 30 132 93
158 155 31 71 32 182 2 249 -28 65 -100 132 -168 157 -73 28 -189 28 -260 0z
m203 -104 c21 -9 46 -23 57 -33 47 -42 70 -153 45 -219 -13 -35 -55 -80 -93
-100 -74 -39 -194 -6 -238 65 -45 72 -38 183 13 239 53 57 145 78 216 48z"/>
<path d="M4223 865 c-69 -35 -96 -73 -101 -144 -3 -46 0 -62 20 -90 31 -47 66
-66 177 -95 115 -31 141 -47 141 -86 0 -38 -40 -60 -108 -60 -53 0 -143 23
-178 47 -22 14 -23 13 -43 -33 -12 -25 -21 -50 -21 -53 0 -13 88 -50 149 -62
185 -36 335 43 335 177 0 94 -50 136 -209 173 -127 31 -166 71 -114 120 41 38
152 36 230 -4 28 -15 29 -15 43 18 30 73 30 73 -16 93 -29 12 -77 19 -148 21
-98 4 -109 3 -157 -22z"/>
<path d="M2850 692 c0 -227 11 -275 74 -338 87 -88 262 -98 366 -23 28 21 50
49 68 87 26 55 27 65 30 260 l4 202 -71 0 -71 0 0 -195 c0 -209 -5 -237 -52
-269 -30 -21 -126 -21 -156 0 -49 34 -56 66 -60 272 l-4 192 -64 0 -64 0 0
-188z"/>
<path d="M3530 585 l0 -295 65 0 65 0 0 85 0 85 64 0 64 0 58 -85 58 -85 73 0
72 0 -60 87 c-74 105 -76 110 -50 118 48 15 101 106 101 175 0 84 -66 174
-147 198 -24 7 -103 12 -202 12 l-161 0 0 -295z m280 186 c58 -12 90 -48 90
-102 0 -77 -69 -116 -190 -107 l-45 3 -3 94 c-1 52 -1 100 2 108 6 15 76 17
146 4z"/>
<path d="M4700 585 l0 -295 225 0 225 0 0 55 0 55 -160 0 -160 0 0 70 0 70
135 0 135 0 0 50 0 50 -135 0 -136 0 3 68 3 67 153 3 152 3 0 49 0 50 -220 0
-220 0 0 -295z"/>
<path d="M616 481 c-22 -24 -11 -49 35 -82 46 -32 95 -144 115 -259 17 -105
25 -120 60 -120 28 0 44 26 44 73 0 52 37 183 67 238 15 28 39 59 54 70 37 26
45 55 23 80 -16 17 -32 19 -199 19 -167 0 -183 -2 -199 -19z"/>
</g>
</svg>
